<?xml version="1.0" standalone="no"?>
<!DOCTYPE svg PUBLIC "-//W3C//DTD SVG 20010904//EN"
 "http://www.w3.org/TR/2001/REC-SVG-20010904/DTD/svg10.dtd">
<svg version="1.0" xmlns="http://www.w3.org/2000/svg"
 width="447.000000pt" height="444.000000pt" viewBox="0 0 447.000000 444.000000"
 preserveAspectRatio="xMidYMid meet">

<g transform="translate(0.000000,444.000000) scale(0.100000,-0.100000)"
fill="#000000" stroke="none">
<path d="M2270 4326 c-51 -15 -145 -61 -155 -76 -11 -18 -23 -11 -30 19 -10
47 -37 64 -91 58 -59 -6 -116 -48 -169 -122 -28 -41 -51 -62 -75 -70 -161 -56
-386 -220 -506 -368 -90 -113 -168 -275 -243 -504 -69 -213 -104 -281 -176
-335 -65 -49 -68 -77 -8 -96 l42 -13 -39 -81 c-43 -89 -63 -166 -58 -229 4
-49 27 -71 57 -52 17 11 18 6 24 -87 3 -53 10 -108 17 -120 10 -19 9 -27 -9
-49 -56 -70 -225 -328 -279 -426 -156 -282 -296 -664 -368 -1002 -36 -169 -39
-364 -7 -460 42 -125 109 -203 223 -257 60 -29 73 -31 170 -31 92 0 112 4 162
27 106 49 191 165 233 314 26 94 23 90 50 64 23 -21 25 -31 25 -104 0 -80 15
-245 26 -298 3 -16 12 -28 21 -28 12 0 14 7 9 32 -9 46 -28 319 -23 325 3 2
24 -5 47 -17 45 -23 70 -21 70 6 0 10 25 -7 69 -48 85 -78 165 -120 244 -126
53 -4 59 -3 64 17 7 26 5 26 54 -5 105 -66 297 -119 343 -95 13 7 33 10 45 6
17 -5 21 -14 21 -51 0 -55 25 -61 34 -9 8 40 5 40 70 20 66 -20 127 -19 209 4
l67 18 6 -38 c4 -25 12 -39 22 -39 11 0 14 9 10 44 -5 40 -3 45 20 56 22 10
28 9 39 -6 26 -36 209 6 321 73 49 30 59 32 79 22 34 -18 125 -5 183 27 28 15
77 52 110 81 57 52 60 53 83 38 19 -12 30 -13 58 -4 19 7 40 17 48 23 11 9 12
-8 6 -109 -3 -66 -10 -148 -14 -182 -7 -55 -5 -63 9 -63 22 0 26 26 41 235 11
157 12 160 43 197 17 21 34 38 37 38 9 0 25 -44 44 -119 35 -139 103 -229 213
-283 63 -31 73 -33 172 -33 96 0 110 3 165 29 153 75 234 228 235 441 0 267
-141 759 -322 1119 -96 191 -303 522 -376 599 -20 21 -21 30 -15 128 l6 106
28 -10 c21 -8 31 -7 44 3 15 12 17 27 12 90 -6 83 -32 162 -77 233 -31 49 -30
53 19 59 13 2 29 11 35 21 9 15 1 27 -56 80 -79 74 -95 104 -142 269 -83 296
-211 525 -388 694 -96 91 -166 140 -275 191 -43 20 -79 38 -81 39 -2 1 2 11 9
22 7 11 9 30 5 46 -15 61 -128 88 -256 62 -41 -9 -76 -16 -77 -16 -2 0 -3 13
-3 29 0 63 -75 86 -180 57z m-225 -36 c14 -15 17 -31 13 -70 -3 -27 -3 -50 -1
-50 3 0 30 20 61 44 32 25 80 54 107 66 62 27 159 38 180 20 23 -19 18 -57
-12 -85 -35 -32 -18 -33 63 -3 79 29 236 32 277 5 39 -25 36 -60 -8 -86 -41
-24 -47 -46 -10 -37 32 8 191 -65 283 -131 133 -95 255 -238 347 -408 54 -101
93 -203 146 -380 47 -161 80 -219 151 -272 48 -34 50 -38 30 -46 -14 -6 -40
-6 -71 0 l-50 10 41 -46 c22 -25 56 -77 74 -116 48 -101 65 -235 30 -235 -6 0
-40 32 -76 70 -36 39 -71 70 -79 70 -8 0 -2 -9 12 -20 45 -36 72 -106 71 -190
0 -41 -6 -94 -13 -118 -14 -51 -23 -48 -78 33 -19 27 -32 41 -29 30 2 -11 10
-40 17 -65 20 -76 14 -204 -15 -295 -27 -86 -95 -208 -118 -213 -17 -3 -77 58
-122 128 l-36 55 0 -41 c0 -54 -25 -135 -63 -209 -34 -65 -189 -229 -210 -223
-6 2 -52 58 -102 123 -87 116 -90 118 -96 89 -15 -77 -115 -212 -232 -313 -32
-28 -67 -51 -77 -51 -24 0 -96 90 -140 172 -17 32 -37 86 -44 121 l-13 62 -11
-52 c-18 -82 -72 -182 -133 -248 -55 -58 -58 -59 -82 -46 -36 19 -151 136
-188 191 -42 63 -75 129 -84 168 l-7 33 -78 -103 c-42 -57 -88 -113 -102 -126
l-24 -22 -47 31 c-62 41 -121 116 -170 217 -43 90 -56 160 -39 214 l11 33 -32
-40 c-18 -22 -62 -71 -98 -109 l-67 -70 -35 75 c-47 99 -64 153 -83 261 -20
118 -7 192 44 251 8 9 11 17 6 17 -5 -1 -34 -32 -64 -70 -30 -38 -58 -69 -61
-69 -9 -1 -26 70 -34 140 -10 78 9 158 52 222 l35 52 -84 -80 c-82 -79 -83
-80 -86 -51 -11 92 49 259 114 315 l35 31 -53 0 c-79 0 -91 12 -48 49 19 17
38 30 42 31 3 0 24 27 46 60 30 44 56 110 102 252 98 303 178 446 339 601 96
93 199 166 320 228 64 32 84 39 95 30 12 -10 19 -2 39 42 28 61 80 117 135
146 47 26 65 26 87 1z m1573 -2085 c10 0 52 -47 98 -108 302 -401 550 -1014
604 -1487 35 -304 -73 -494 -309 -545 l-34 -7 23 32 c28 40 69 137 70 165 0
11 -15 -10 -33 -46 -19 -37 -49 -85 -68 -108 -32 -39 -37 -41 -72 -36 -21 3
-63 18 -92 33 l-54 27 29 44 c29 42 50 99 50 131 0 8 -14 -12 -30 -45 -17 -33
-39 -71 -50 -84 l-21 -24 -29 28 c-37 35 -77 119 -96 203 -8 36 -22 81 -29 99
-13 31 -12 36 21 90 102 170 142 477 100 760 -24 157 -108 473 -160 597 -14
33 -13 43 4 113 11 42 20 105 20 141 l0 65 21 -19 c11 -10 28 -19 37 -19z
m-2638 -220 c11 -38 8 -53 -35 -191 -98 -314 -135 -518 -135 -738 0 -208 36
-355 122 -500 l41 -70 -12 -60 c-19 -94 -68 -201 -115 -253 l-42 -46 -25 34
c-13 19 -34 63 -47 99 l-22 65 4 -49 c2 -28 17 -74 35 -109 17 -33 30 -61 29
-62 -11 -8 -96 -37 -128 -44 -39 -9 -41 -8 -79 35 -21 24 -46 65 -55 91 -29
79 -38 99 -43 86 -6 -16 24 -121 43 -150 8 -13 21 -34 29 -47 l16 -24 -48 9
c-115 22 -203 94 -261 216 -33 71 -36 85 -40 189 -14 365 222 1053 512 1493
103 156 156 223 171 218 7 -3 21 0 32 8 17 13 19 9 30 -73 6 -47 17 -105 23
-127z m2575 -179 c45 -158 89 -359 106 -486 16 -119 16 -364 0 -450 -40 -212
-147 -403 -270 -482 -63 -39 -75 -37 -67 11 3 22 9 48 13 58 4 10 -28 -19 -71
-64 -43 -45 -105 -100 -139 -122 -58 -39 -155 -69 -176 -56 -6 3 -4 21 4 46
l14 40 -42 -34 c-86 -70 -248 -142 -333 -149 -34 -3 -39 0 -42 20 -2 12 -6 22
-9 22 -3 0 -46 -15 -97 -34 -50 -19 -118 -40 -152 -46 -54 -11 -70 -10 -139 9
-42 12 -104 35 -137 51 -73 37 -82 37 -74 5 8 -30 4 -31 -91 -6 -83 22 -183
66 -247 110 -60 42 -70 40 -62 -8 l6 -38 -46 8 c-73 14 -142 58 -242 153 l-92
89 0 -42 c0 -22 -4 -41 -8 -41 -14 0 -84 55 -123 96 -77 81 -140 209 -176 350
-24 96 -24 380 0 522 36 213 122 562 138 562 3 0 14 -20 23 -44 9 -24 31 -65
48 -91 l31 -47 77 77 76 76 12 -52 c28 -121 125 -264 227 -334 l57 -40 39 45
c22 25 63 76 91 113 l51 68 46 -87 c51 -97 146 -206 225 -260 l51 -35 56 61
c55 58 129 182 129 214 0 29 16 17 29 -21 19 -54 83 -160 129 -213 l39 -44 43
28 c93 61 217 199 270 299 14 26 28 47 31 47 4 0 19 -19 34 -42 50 -76 128
-168 143 -168 9 0 56 42 106 93 96 97 142 169 171 270 9 31 21 57 26 57 5 0 9
-4 9 -9 0 -16 101 -121 116 -121 18 0 62 61 98 138 16 34 31 61 32 59 1 -1 18
-60 39 -131z"/>
<path d="M2478 3694 c-64 -15 -158 -60 -203 -97 l-30 -25 -35 28 c-94 74 -200
105 -341 98 -80 -3 -104 -9 -164 -36 -96 -45 -165 -101 -229 -185 -118 -156
-170 -306 -170 -487 0 -96 4 -125 24 -175 26 -69 76 -148 117 -187 106 -100
293 -188 488 -229 95 -21 137 -24 315 -23 229 0 333 14 483 65 240 80 411 254
448 454 15 83 5 235 -21 320 -41 130 -96 222 -189 315 -97 97 -156 132 -267
160 -89 23 -145 24 -226 4z m256 -33 c254 -89 436 -360 436 -651 0 -157 -42
-262 -150 -371 -113 -114 -267 -186 -480 -225 -116 -21 -416 -24 -535 -5 -346
54 -572 195 -656 409 -33 80 -33 253 -1 365 42 148 137 301 236 379 111 88
220 123 358 116 94 -5 176 -36 259 -100 l45 -35 40 35 c115 101 299 135 448
83z"/>
<path d="M1731 3323 c-67 -33 -105 -132 -87 -228 8 -42 70 -111 109 -120 101
-26 196 69 197 195 0 131 -109 207 -219 153z m147 -65 c16 -16 15 -33 -4 -52
-21 -21 -54 -4 -54 29 0 32 35 46 58 23z"/>
<path d="M2640 3322 c-69 -36 -101 -153 -64 -240 75 -181 294 -125 294 75 -1
138 -119 223 -230 165z m145 -87 c0 -25 -4 -30 -24 -30 -32 0 -49 28 -31 50 7
9 23 15 34 13 16 -2 21 -10 21 -33z"/>
<path d="M2167 3076 c-63 -17 -89 -42 -85 -80 9 -90 234 -116 303 -35 14 17
25 34 25 38 0 24 -46 62 -92 76 -61 18 -87 18 -151 1z"/>
<path d="M1596 2885 c-38 -20 -55 -44 -55 -75 l0 -25 17 28 c9 15 20 27 24 27
4 0 28 -13 55 -30 126 -77 359 -123 623 -123 293 1 508 54 612 151 l28 26 23
-22 c32 -30 40 -28 23 6 -14 27 -53 52 -79 52 -7 0 -3 -7 7 -15 20 -15 20 -15
0 -30 -79 -59 -259 -116 -427 -136 -140 -16 -402 -6 -532 21 -106 22 -306 97
-312 117 -2 6 5 14 16 18 12 3 21 11 21 16 0 13 -10 11 -44 -6z"/>
</g>
</svg>
